<?xml version="1.0" encoding="iso-8859-1"?>
<!-- Generator: Adobe Illustrator 22.0.1, SVG Export Plug-In . SVG Version: 6.00 Build 0)  -->
<svg version="1.1" id="Layer_1_1_" xmlns="http://www.w3.org/2000/svg" xmlns:xlink="http://www.w3.org/1999/xlink" x="0px" y="0px"
	 viewBox="0 0 64 64" style="enable-background:new 0 0 64 64;" xml:space="preserve">
<g id="Guide">
	<g>
	</g>
	<g>
	</g>
	<g>
	</g>
	<g>
	</g>
	<g>
	</g>
	<g>
	</g>
	<g>
	</g>
	<g>
	</g>
	<g>
	</g>
	<g>
	</g>
	<g>
	</g>
	<g>
	</g>
	<g>
	</g>
	<g>
	</g>
	<g>
	</g>
	<g>
	</g>
	<g>
	</g>
	<g>
	</g>
	<g>
	</g>
	<g>
	</g>
	<g>
	</g>
	<g>
	</g>
	<g>
	</g>
	<g>
	</g>
	<g>
	</g>
	<g>
	</g>
	<g>
	</g>
	<g>
	</g>
	<g>
	</g>
	<g>
	</g>
	<g>
	</g>
	<g>
	</g>
	<g>
	</g>
	<g>
	</g>
	<g>
	</g>
	<g>
	</g>
</g>
<path d="M24,32c0,4.411,3.589,8,8,8s8-3.589,8-8s-3.589-8-8-8S24,27.589,24,32z M38,32c0,3.309-2.691,6-6,6s-6-2.691-6-6
	s2.691-6,6-6S38,28.691,38,32z"/>
<path d="M57,27c-2.414,0-4.434,1.721-4.899,4H47v-6c0-0.358-0.192-0.69-0.504-0.868l-3.318-1.896l7.069-7.069
	C51.038,15.691,51.983,16,53,16c2.757,0,5-2.243,5-5s-2.243-5-5-5s-5,2.243-5,5c0,1.017,0.309,1.962,0.833,2.753l-7.455,7.455
	L33,16.42v-4.521c2.279-0.465,4-2.484,4-4.899c0-2.757-2.243-5-5-5s-5,2.243-5,5c0,2.414,1.721,4.434,4,4.899v4.521l-8.378,4.788
	l-7.455-7.455C15.691,12.962,16,12.017,16,11c0-2.757-2.243-5-5-5s-5,2.243-5,5s2.243,5,5,5c1.017,0,1.962-0.309,2.753-0.833
	l7.069,7.069l-3.318,1.896C17.192,24.31,17,24.642,17,25v6h-5.101C11.434,28.721,9.414,27,7,27c-2.757,0-5,2.243-5,5s2.243,5,5,5
	c2.414,0,4.434-1.721,4.899-4H17v6c0,0.358,0.192,0.69,0.504,0.868l3.318,1.896l-7.069,7.069C12.962,48.309,12.017,48,11,48
	c-2.757,0-5,2.243-5,5s2.243,5,5,5s5-2.243,5-5c0-1.017-0.309-1.962-0.833-2.753l7.455-7.455L31,47.58v4.521
	c-2.279,0.465-4,2.484-4,4.899c0,2.757,2.243,5,5,5s5-2.243,5-5c0-2.414-1.721-4.434-4-4.899V47.58l8.378-4.788l7.455,7.455
	C48.309,51.038,48,51.983,48,53c0,2.757,2.243,5,5,5s5-2.243,5-5s-2.243-5-5-5c-1.017,0-1.962,0.309-2.753,0.833l-7.069-7.069
	l3.318-1.896C46.808,39.69,47,39.358,47,39v-6h5.101c0.465,2.279,2.484,4,4.899,4c2.757,0,5-2.243,5-5S59.757,27,57,27z M53,8
	c1.654,0,3,1.346,3,3s-1.346,3-3,3s-3-1.346-3-3S51.346,8,53,8z M11,14c-1.654,0-3-1.346-3-3s1.346-3,3-3s3,1.346,3,3
	S12.654,14,11,14z M7,35c-1.654,0-3-1.346-3-3s1.346-3,3-3s3,1.346,3,3S8.654,35,7,35z M11,56c-1.654,0-3-1.346-3-3s1.346-3,3-3
	s3,1.346,3,3S12.654,56,11,56z M53,50c1.654,0,3,1.346,3,3s-1.346,3-3,3s-3-1.346-3-3S51.346,50,53,50z M29,7c0-1.654,1.346-3,3-3
	s3,1.346,3,3s-1.346,3-3,3S29,8.654,29,7z M35,57c0,1.654-1.346,3-3,3s-3-1.346-3-3s1.346-3,3-3S35,55.346,35,57z M45,38.42
	l-13,7.429L19,38.42V25.58l13-7.429l13,7.429V38.42z M57,35c-1.654,0-3-1.346-3-3s1.346-3,3-3s3,1.346,3,3S58.654,35,57,35z"/>
</svg>
